<svg xmlns="http://www.w3.org/2000/svg" width="40" height="40" viewBox="0 0 34.645 34.694">
  <path id="Tracé_54" data-name="Tracé 54" d="M710.65,120.548c0-2.737-.139-5.484.033-8.21.324-5.228,3.815-8.808,9.064-9.018,5.4-.218,10.816-.22,16.213-.013,5.086.195,8.638,3.274,8.988,8.329a131.111,131.111,0,0,1-.02,17.869,8.146,8.146,0,0,1-8.059,8.036,134.889,134.889,0,0,1-17.869.02c-5.018-.342-8.031-3.95-8.322-9.01C710.523,125.89,710.65,123.216,710.65,120.548Zm31.27-.046c0-2.527.1-5.058-.023-7.58-.185-3.782-2.043-6.1-5.752-6.3a162.187,162.187,0,0,0-16.606.023c-3.423.175-5.35,2.114-5.522,5.552a163.827,163.827,0,0,0,0,16.611c.188,3.605,2.481,5.562,6.135,5.674q7.679.228,15.37.008c3.977-.119,6.16-2.4,6.375-6.41C742.033,125.563,741.922,123.029,741.919,120.5Z" transform="translate(-710.597 -103.153)" fill="#fff"/>
  <path id="Tracé_55" data-name="Tracé 55" d="M739.98,118.524c0,2.527.111,5.061-.023,7.58-.215,4.008-2.4,6.291-6.375,6.41q-7.679.228-15.37-.008c-3.653-.111-5.947-2.068-6.135-5.674a163.827,163.827,0,0,1,0-16.611c.172-3.438,2.1-5.377,5.522-5.552a162.187,162.187,0,0,1,16.606-.023c3.709.192,5.567,2.514,5.752,6.3C740.078,113.465,739.977,116,739.98,118.524Zm-22.877-.033a8.844,8.844,0,0,0,8.757,8.935,8.873,8.873,0,1,0,.081-17.745A8.76,8.76,0,0,0,717.1,118.491Zm17.674-6.783.949-.015c.542-.835,1.595-1.752,1.484-2.491a3.014,3.014,0,0,0-2.137-1.886c-.534-.078-1.777,1.218-1.8,1.924C733.253,110.047,734.233,110.883,734.777,111.708Z" transform="translate(-708.655 -101.175)" fill="none" stroke="#c79c2c" stroke-width="2"/>
  <path id="Tracé_56" data-name="Tracé 56" d="M713.934,115.323a8.76,8.76,0,0,1,8.838-8.81,8.873,8.873,0,1,1-8.838,8.81ZM722.78,121a5.569,5.569,0,0,0,5.638-5.59,5.68,5.68,0,0,0-5.532-5.742,5.763,5.763,0,0,0-5.79,5.739A5.676,5.676,0,0,0,722.78,121Z" transform="translate(-705.486 -98.008)" fill="#fff" stroke="#c79c2c" stroke-width="2"/>
  <path id="Tracé_57" data-name="Tracé 57" d="M721.823,109.974c-.544-.825-1.524-1.661-1.5-2.468.02-.706,1.263-2,1.8-1.924a3.014,3.014,0,0,1,2.137,1.886c.111.739-.942,1.656-1.484,2.491Z" transform="translate(-695.701 -99.44)" fill="#fff"/>
  <path id="Tracé_58" data-name="Tracé 58" d="M720.867,119.094a5.676,5.676,0,0,1-5.684-5.593,5.763,5.763,0,0,1,5.79-5.739,5.68,5.68,0,0,1,5.532,5.742A5.569,5.569,0,0,1,720.867,119.094Z" transform="translate(-703.573 -96.097)" fill="none" stroke="#c79c2c" stroke-width="1"/>
</svg>
