<svg xmlns="http://www.w3.org/2000/svg" width="40" height="40" viewBox="0 0 35.136 28.424">
  <path id="Tracé_15" data-name="Tracé 15" d="M674.736,106.16a19.389,19.389,0,0,0,13.239,6.75c.041-.7.048-1.372.116-2.036.484-4.552,5.4-7.54,9.33-5.281a6.117,6.117,0,0,0,6.091.294l-1.757,2.906,2.081-.451c.071.175.177.362.149.385-2.337,1.836-2.544,4.469-3.073,7.165A18.464,18.464,0,0,1,674.979,129.4c-.61-.271-1.177-.643-1.6-.876l8.281-2.413-.023-.691c-2.5-.615-4.484-1.823-5.471-4.476l1.922-.382c-2.524-1.425-4.152-3.251-4.347-6.286l2.413.466C673.911,112.067,673,109.4,674.736,106.16Z" transform="translate(-670.798 -103.766)" fill="#fff" stroke="#c79c2c" stroke-width="2"/>
</svg>
