<svg xmlns="http://www.w3.org/2000/svg" width="30" height="30" viewBox="0 0 24 24">
  <g id="vuesax_bold_login" data-name="vuesax/bold/login" transform="translate(-684 -444)">
    <g id="login">
      <g id="Vector" transform="translate(693 446)" fill="#292d32">
        <path d="M 7.789999961853027 19.5 L 5.199999809265137 19.5 C 3.765399932861328 19.5 2.573640108108521 19.06653022766113 1.753550052642822 18.24645042419434 C 0.9334700107574463 17.42635917663574 0.5 16.23460006713867 0.5 14.80000019073486 L 0.5 11.25 L 3.232899904251099 11.25 L 2.016449928283691 12.46644973754883 C 1.529250025749207 12.95363998413086 1.529250025749207 13.74635982513428 2.016449928283691 14.23355007171631 C 2.251140117645264 14.4682502746582 2.564929962158203 14.59749984741211 2.900000095367432 14.59749984741211 C 3.235069990158081 14.59749984741211 3.5488600730896 14.4682502746582 3.783550024032593 14.23355007171631 L 7.13355016708374 10.88354969024658 C 7.620749950408936 10.39636039733887 7.620749950408936 9.603639602661133 7.13355016708374 9.116450309753418 L 3.783550024032593 5.766449928283691 C 3.5488600730896 5.531750202178955 3.235069990158081 5.402500152587891 2.900000095367432 5.402500152587891 C 2.564929962158203 5.402500152587891 2.251140117645264 5.531750202178955 2.016449928283691 5.766449928283691 C 1.780140042304993 6.002749919891357 1.649999976158142 6.316539764404297 1.649999976158142 6.650000095367432 C 1.649999976158142 6.983459949493408 1.780140042304993 7.297249794006348 2.016449928283691 7.533549785614014 L 3.232899904251099 8.75 L 0.5 8.75 L 0.5 5.199999809265137 C 0.5 3.765399932861328 0.9334700107574463 2.573640108108521 1.753550052642822 1.753550052642822 C 2.573640108108521 0.9334700107574463 3.765399932861328 0.5 5.199999809265137 0.5 L 7.800000190734863 0.5 C 9.236339569091797 0.5 10.42838954925537 0.9341899752616882 11.24726963043213 1.755630016326904 C 12.0647497177124 2.575670003890991 12.49448013305664 3.766170024871826 12.48999977111816 5.198440074920654 L 12.48999977111816 14.80000019073486 C 12.48999977111816 16.23460006713867 12.0565299987793 17.42635917663574 11.2364501953125 18.24645042419434 C 10.41635990142822 19.06653022766113 9.224599838256836 19.5 7.789999961853027 19.5 Z" stroke="none"/>
        <path d="M 5.199999809265137 1 C 3.900890350341797 1 2.831379890441895 1.382829666137695 2.107110023498535 2.107109069824219 C 1.382829666137695 2.831380844116211 1 3.900890350341797 1 5.199999809265137 L 1 8.25 L 2.025779724121094 8.25 L 1.662890434265137 7.887109756469727 C 1.332150459289551 7.556360244750977 1.149999618530273 7.117019653320312 1.149999618530273 6.649999618530273 C 1.149999618530273 6.182979583740234 1.332150459289551 5.743639945983887 1.662890434265137 5.412890434265137 C 1.992030143737793 5.083760261535645 2.431369781494141 4.902500152587891 2.899999618530273 4.902500152587891 C 3.368630409240723 4.902500152587891 3.80797004699707 5.083760261535645 4.137109756469727 5.412890434265137 L 7.487110137939453 8.762889862060547 C 8.16925048828125 9.445039749145508 8.16925048828125 10.55496025085449 7.487110137939453 11.23711013793945 L 4.137109756469727 14.58711051940918 C 3.80797004699707 14.91624069213867 3.368630409240723 15.09749984741211 2.899999618530273 15.09749984741211 C 2.431369781494141 15.09749984741211 1.992030143737793 14.91624069213867 1.662890434265137 14.58711051940918 C 0.9807500839233398 13.90496063232422 0.9807500839233398 12.79504013061523 1.662890434265137 12.11289024353027 L 2.025779724121094 11.75 L 1 11.75 L 1 14.80000019073486 C 1 16.0991096496582 1.382829666137695 17.16862106323242 2.107110023498535 17.89289093017578 C 2.831379890441895 18.6171703338623 3.900890350341797 19 5.199999809265137 19 L 7.789999961853027 19 C 9.089109420776367 19 10.15861988067627 18.6171703338623 10.88288974761963 17.89289093017578 C 11.60717010498047 17.16862106323242 11.98999977111816 16.0991096496582 11.98999977111816 14.80000019073486 L 11.98999977111816 5.196880340576172 C 11.99406051635742 3.900400161743164 11.61476993560791 2.832500457763672 10.89315986633301 2.10862922668457 C 10.17014980316162 1.383359909057617 9.100560188293457 1 7.800000190734863 1 L 5.199999809265137 1 M 5.199999809265137 0 L 7.800000190734863 0 C 11 0 13 2 12.98999977111816 5.199999809265137 L 12.98999977111816 14.80000019073486 C 12.98999977111816 18 10.98999977111816 20 7.789999961853027 20 L 5.199999809265137 20 C 2 20 0 18 0 14.80000019073486 L 0 10.75 L 4.439999580383301 10.75 L 2.369999885559082 12.81999969482422 C 2.079999923706055 13.11000061035156 2.079999923706055 13.59000015258789 2.369999885559082 13.88000011444092 C 2.660001754760742 14.17000007629395 3.140000343322754 14.17000007629395 3.430000305175781 13.88000011444092 L 6.78000020980835 10.52999973297119 C 7.070000171661377 10.23999977111816 7.070000171661377 9.760000228881836 6.78000020980835 9.470000267028809 L 3.430000305175781 6.119999885559082 C 3.139999389648438 5.829999923706055 2.660001754760742 5.829999923706055 2.369999885559082 6.119999885559082 C 2.220000267028809 6.270000457763672 2.149999618530273 6.460000038146973 2.149999618530273 6.649999618530273 C 2.149999618530273 6.840000152587891 2.220000267028809 7.029999732971191 2.369999885559082 7.180000305175781 L 4.439999580383301 9.25 L 0 9.25 L 0 5.199999809265137 C 0 2 2 0 5.199999809265137 0 Z" stroke="none" fill="#c79c2c"/>
      </g>
      <g id="Vector-2" data-name="Vector" transform="translate(686 455.25)" fill="#292d32">
        <path d="M 6.5 1 L 0.75 1 C 0.6168199777603149 1 0.5 0.8831800222396851 0.5 0.75 C 0.5 0.6168199777603149 0.6168199777603149 0.5 0.75 0.5 L 6.5 0.5 L 6.5 1 Z" stroke="none"/>
        <path d="M 0.75 0 L 7 0 L 7 1.5 L 0.75 1.5 C 0.3400001525878906 1.5 0 1.159999966621399 0 0.75 C 0 0.3400000333786011 0.3400001525878906 0 0.75 0 Z" stroke="none" fill="#c79c2c"/>
      </g>
      <g id="Vector-3" data-name="Vector" transform="translate(708 468) rotate(180)" fill="none" opacity="0">
        <path d="M0,0H24V24H0Z" stroke="none"/>
        <path d="M 1 1 L 1 23 L 23 23 L 23 1 L 1 1 M 0 0 L 24 0 L 24 24 L 0 24 L 0 0 Z" stroke="none" fill="#c79c2c"/>
      </g>
    </g>
  </g>
</svg>
