<svg xmlns="http://www.w3.org/2000/svg" width="30" height="30" viewBox="0 0 24 24">
  <g id="vuesax_bold_shopping-cart" data-name="vuesax/bold/shopping-cart" transform="translate(-622 -188)">
    <g id="shopping-cart">
      <g id="Vector" transform="translate(622 188)" fill="none" opacity="0">
        <path d="M0,0H24V24H0Z" stroke="none"/>
        <path d="M 1 1 L 1 23 L 23 23 L 23 1 L 1 1 M 0 0 L 24 0 L 24 24 L 0 24 L 0 0 Z" stroke="none" fill="#c79c2c"/>
      </g>
      <g id="Vector-2" data-name="Vector" transform="translate(636.5 207)" fill="#292d32">
        <path d="M 1.75 3 C 1.060750007629395 3 0.5 2.439249992370605 0.5 1.75 C 0.5 1.060750007629395 1.060750007629395 0.5 1.75 0.5 C 2.439249992370605 0.5 3 1.060750007629395 3 1.75 C 3 2.439249992370605 2.439249992370605 3 1.75 3 Z" stroke="none"/>
        <path d="M 1.75 1 C 1.336450099945068 1 1 1.336450099945068 1 1.75 C 1 2.163549900054932 1.336450099945068 2.5 1.75 2.5 C 2.163549900054932 2.5 2.5 2.163549900054932 2.5 1.75 C 2.5 1.336450099945068 2.163549900054932 1 1.75 1 M 1.75 0 C 2.716500043869019 0 3.5 0.7834999561309814 3.5 1.75 C 3.5 2.716500043869019 2.716500043869019 3.5 1.75 3.5 C 0.7834999561309814 3.5 0 2.716500043869019 0 1.75 C 0 0.7834999561309814 0.7834999561309814 0 1.75 0 Z" stroke="none" fill="#c79c2c"/>
      </g>
      <g id="Vector-3" data-name="Vector" transform="translate(628.5 207)" fill="#292d32">
        <path d="M 1.75 3 C 1.060750007629395 3 0.5 2.439249992370605 0.5 1.75 C 0.5 1.060750007629395 1.060750007629395 0.5 1.75 0.5 C 2.439249992370605 0.5 3 1.060750007629395 3 1.75 C 3 2.439249992370605 2.439249992370605 3 1.75 3 Z" stroke="none"/>
        <path d="M 1.75 1 C 1.336450099945068 1 1 1.336450099945068 1 1.75 C 1 2.163549900054932 1.336450099945068 2.5 1.75 2.5 C 2.163549900054932 2.5 2.5 2.163549900054932 2.5 1.75 C 2.5 1.336450099945068 2.163549900054932 1 1.75 1 M 1.75 0 C 2.716500043869019 0 3.5 0.7834999561309814 3.5 1.75 C 3.5 2.716500043869019 2.716500043869019 3.5 1.75 3.5 C 0.7834999561309814 3.5 0 2.716500043869019 0 1.75 C 0 0.7834999561309814 0.7834999561309814 0 1.75 0 Z" stroke="none" fill="#c79c2c"/>
      </g>
      <g id="Vector-4" data-name="Vector" transform="translate(623.25 189.25)" fill="#292d32">
        <path d="M 19.5 5.5 L 4.189999103546143 5.5 C 4.100639343261719 5.5 4.019639015197754 5.465390205383301 3.96191930770874 5.402550220489502 C 3.923319101333618 5.360529899597168 3.879189252853394 5.288219928741455 3.888199090957642 5.182400226593018 L 4.088339328765869 2.730679988861084 L 4.08868932723999 2.726439952850342 L 4.088959217071533 2.722189903259277 C 4.118089199066162 2.270689964294434 3.969029188156128 1.841210007667542 3.669239282608032 1.512869954109192 L 3.665509223937988 1.508769989013672 L 3.661679267883301 1.504760026931763 C 3.35547924041748 1.183979988098145 2.92841911315918 1 2.489999294281006 1 L 0.7499992251396179 1 C 0.6168192028999329 1 0.4999991953372955 0.8831800222396851 0.4999991953372955 0.75 C 0.4999991953372955 0.6168199777603149 0.6168192028999329 0.5 0.7499992251396179 0.5 L 2.489999294281006 0.5 C 3.066987991333008 0.5 3.63180136680603 0.746794581413269 4.040934562683105 1.177444338798523 C 4.277460098266602 1.44665002822876 4.447366714477539 1.786511659622192 4.532429218292236 2.160809993743896 L 4.620889186859131 2.549999952316284 L 5.019999027252197 2.549999952316284 L 17.30999946594238 2.549999952316284 C 18.02896881103516 2.549999952316284 18.68441009521484 2.829240083694458 19.15557861328125 3.336289882659912 C 19.62434005737305 3.840729951858521 19.85367012023926 4.510910034179688 19.80134010314941 5.223380088806152 C 19.79004859924316 5.381509780883789 19.66053009033203 5.5 19.5 5.5 Z" stroke="none"/>
        <path d="M 4.563933372497559 3.049999952316284 L 4.404750823974609 5 L 19.30846786499023 5 C 19.30245590209961 4.498512268066406 19.12150192260742 4.034128189086914 18.78930854797363 3.676640033721924 C 18.41379928588867 3.272550106048584 17.8884391784668 3.049999952316284 17.30999946594238 3.049999952316284 L 4.563933372497559 3.049999952316284 M 0.75 0 L 2.489999771118164 0 C 3.209999084472656 0 3.909999847412109 0.309999942779541 4.409999847412109 0.8400001525878906 C 4.719999313354492 1.190000057220459 4.919999122619629 1.610000133514404 5.019999504089355 2.049999952316284 L 17.30999946594238 2.049999952316284 C 19.07999992370605 2.049999952316284 20.42999839782715 3.490000009536743 20.29999923706055 5.260000228881836 C 20.26999855041504 5.679999828338623 19.92000007629395 6 19.5 6 L 4.189998626708984 6 C 3.719999313354492 6 3.349998474121094 5.610000133514404 3.389999389648438 5.139999866485596 L 3.589998245239258 2.690000057220459 C 3.60999870300293 2.380000114440918 3.509998321533203 2.079999923706055 3.299999237060547 1.849999904632568 C 3.089998245239258 1.630000114440918 2.799999237060547 1.5 2.489999771118164 1.5 L 0.75 1.5 C 0.3399982452392578 1.5 0 1.159999847412109 0 0.75 C 0 0.3400001525878906 0.3399982452392578 0 0.75 0 Z" stroke="none" fill="#c79c2c"/>
      </g>
      <g id="Vector-5" data-name="Vector" transform="translate(626 196.75)" fill="#292d32">
        <path d="M 14.04005336761475 7.75 L 2.920053005218506 7.75 C 2.236542940139771 7.75 1.605372905731201 7.473549842834473 1.142822980880737 6.971590042114258 C 0.67734295129776 6.466440200805664 0.4520329535007477 5.809150218963623 0.5083829760551453 5.120800018310547 L 0.8679838180541992 0.7757000327110291 C 0.8847396373748779 0.6183171272277832 1.014111280441284 0.5 1.170053005218506 0.5 L 16.51005363464355 0.5 C 16.59701347351074 0.5 16.6754035949707 0.533270001411438 16.73078346252441 0.5936800241470337 C 16.78360366821289 0.6512899994850159 16.80886268615723 0.7269300222396851 16.80193328857422 0.806689977645874 L 16.80158233642578 0.8107200264930725 L 16.80129241943359 0.8147600293159485 L 16.47129249572754 5.48475980758667 C 16.42744255065918 6.082799911499023 16.14832305908203 6.650400161743164 15.68545341491699 7.081689834594727 C 15.22292327880859 7.512650012969971 14.63857269287109 7.75 14.04005336761475 7.75 Z" stroke="none"/>
        <path d="M 1.35112476348877 1 L 1.006723403930664 5.161600112915039 C 0.9618930816650391 5.709090232849121 1.140813827514648 6.231559753417969 1.510522842407227 6.63277006149292 C 1.877292633056641 7.030799865722656 2.377873420715332 7.25 2.920052528381348 7.25 L 14.04005241394043 7.25 C 15.01599311828613 7.25 15.90105247497559 6.424260139465332 15.97254276275635 5.449510097503662 L 16.28696250915527 1 L 1.35112476348877 1 M 1.170053482055664 0 L 16.51005363464355 0 C 16.98005294799805 0 17.34005355834961 0.3899998664855957 17.30005264282227 0.8499999046325684 L 16.97005271911621 5.519999980926514 C 16.86005210876465 7.019999980926514 15.54005241394043 8.25 14.04005241394043 8.25 L 2.920052528381348 8.25 C 1.210052490234375 8.25 -0.1299476623535156 6.789999961853027 0.01005363464355469 5.079999923706055 L 0.3700523376464844 0.7300000190734863 C 0.4100532531738281 0.320000171661377 0.7500534057617188 0 1.170053482055664 0 Z" stroke="none" fill="#c79c2c"/>
      </g>
    </g>
  </g>
</svg>
