<svg xmlns="http://www.w3.org/2000/svg" width="30" height="30" viewBox="0 0 24 24">
  <g id="vuesax_bold_frame" data-name="vuesax/bold/frame" transform="translate(-108 -252)">
    <g id="frame">
      <g id="Vector" transform="translate(115.25 254)" fill="#292d32">
        <path d="M 4.91099739074707 8.989999771118164 L 4.900000095367432 8.989999771118164 L 4.883763313293457 8.989999771118164 C 4.840590953826904 8.985016822814941 4.794953346252441 8.982500076293945 4.747499942779541 8.982500076293945 C 4.703173637390137 8.982500076293945 4.657942771911621 8.984670639038086 4.612529277801514 8.988967895507812 C 3.490737438201904 8.941933631896973 2.454267501831055 8.485424041748047 1.690750002861023 7.701210021972656 C 0.9228799939155579 6.912519931793213 0.5 5.864429950714111 0.5 4.75 C 0.5 2.406539916992188 2.406539916992188 0.4999998807907104 4.75 0.4999998807907104 C 7.093460083007812 0.4999998807907104 9 2.406539916992188 9 4.75 C 8.991070747375488 7.043616771697998 7.195769309997559 8.905282974243164 4.91099739074707 8.989999771118164 Z" stroke="none"/>
        <path d="M 4.75 1 C 2.682240009307861 1 1 2.682240009307861 1 4.75 C 1 5.733399868011475 1.372540473937988 6.657619953155518 2.048999786376953 7.352409839630127 C 2.716078281402588 8.037571907043457 3.620922088623047 8.439441680908203 4.602848052978516 8.488012313842773 C 4.706819534301758 8.48016357421875 4.81008243560791 8.480703353881836 4.907181262969971 8.48976993560791 C 6.915903568267822 8.407571792602539 8.492138862609863 6.767424583435059 8.5 4.75 C 8.5 2.682240009307861 6.817759990692139 1 4.75 1 M 4.75 0 C 7.369999885559082 0 9.5 2.130000114440918 9.5 4.75 C 9.489999771118164 7.319999694824219 7.480000019073486 9.399999618530273 4.920000076293945 9.489999771118164 C 4.909999847412109 9.489999771118164 4.909999847412109 9.489999771118164 4.900000095367432 9.489999771118164 C 4.880000114440918 9.489999771118164 4.869999885559082 9.489999771118164 4.849999904632568 9.489999771118164 C 4.790000438690186 9.479999542236328 4.710000038146973 9.479999542236328 4.630000114440918 9.489999771118164 C 2.010000228881836 9.399999618530273 0 7.319999694824219 0 4.75 C 0 2.130000114440918 2.130000114440918 0 4.75 0 Z" stroke="none" fill="#c79c2c"/>
      </g>
      <g id="Vector-2" data-name="Vector" transform="translate(112.96 264.755)" fill="#292d32">
        <path d="M 7.040000438690186 8.744999885559082 C 5.216520309448242 8.744999885559082 3.511390447616577 8.27440071105957 2.238720417022705 7.419890403747559 C 1.117000460624695 6.672080516815186 0.5000004172325134 5.679820537567139 0.5000004172325134 4.625000476837158 C 0.5000004172325134 3.564540386199951 1.12082040309906 2.565000295639038 2.248100519180298 1.81052029132843 C 3.524100542068481 0.9659203290939331 5.231090545654297 0.5000003576278687 7.052500247955322 0.5000003576278687 C 8.873330116271973 0.5000003576278687 10.57451057434082 0.9656003713607788 11.84265041351318 1.811030387878418 C 12.95436000823975 2.552170276641846 13.57137012481689 3.545860290527344 13.58002090454102 4.609060287475586 C 13.58000087738037 5.663820266723633 12.96219062805176 6.66372013092041 11.84038066864014 7.4205002784729 C 10.56861019134521 8.27440071105957 8.863480567932129 8.744999885559082 7.040000438690186 8.744999885559082 Z" stroke="none"/>
        <path d="M 7.052500247955322 1.000000476837158 C 5.32907772064209 1.000000476837158 3.720815658569336 1.436010360717773 2.523831367492676 2.227633953094482 C 1.541123390197754 2.886127948760986 1 3.737425327301025 1 4.625000476837158 C 1 5.507260322570801 1.537930488586426 6.351770401000977 2.517430305480957 7.004780292510986 C 3.708580017089844 7.804550170898438 5.314720153808594 8.245000839233398 7.040000438690186 8.245000839233398 C 8.765279769897461 8.245000839233398 10.37141990661621 7.804550170898438 11.56075096130371 7.006000518798828 C 12.25294208526611 6.539049625396729 13.07788276672363 5.744365692138672 13.07999610900879 4.60932731628418 C 13.07126808166504 3.718376636505127 12.53347969055176 2.87250280380249 11.56529998779297 2.227050304412842 C 10.37839031219482 1.435770511627197 8.775711059570312 1.000000476837158 7.052500247955322 1.000000476837158 M 7.052500247955322 0 C 8.890000343322754 0 10.72500038146973 0.4650001525878906 12.1200008392334 1.395000457763672 C 13.38000011444092 2.235000133514404 14.07000064849854 3.375000476837158 14.08000087738037 4.605000495910645 C 14.08000087738037 5.845000267028809 13.38000011444092 6.985000610351562 12.1200008392334 7.835000514984131 C 9.320000648498535 9.715000152587891 4.760002136230469 9.715000152587891 1.960000038146973 7.835000514984131 C 0.7000007629394531 6.99500036239624 0 5.855000495910645 0 4.625000476837158 C 0 3.395000457763672 0.7000007629394531 2.24500036239624 1.970000267028809 1.395000457763672 C 3.375 0.4650001525878906 5.215000152587891 0 7.052500247955322 0 Z" stroke="none" fill="#c79c2c"/>
      </g>
      <g id="Vector-3" data-name="Vector" transform="translate(132 276) rotate(180)" fill="none" opacity="0">
        <path d="M0,0H24V24H0Z" stroke="none"/>
        <path d="M 1 1 L 1 23 L 23 23 L 23 1 L 1 1 M 0 0 L 24 0 L 24 24 L 0 24 L 0 0 Z" stroke="none" fill="#c79c2c"/>
      </g>
    </g>
  </g>
</svg>
